<svg viewBox="0 0 61 61" width="256" height="256" fill="#000" shape-rendering="crispEdges" xmlns="http://www.w3.org/2000/svg" version="1.1"><path transform="matrix(1,0,0,1,4,4)" d="M51,52h1v1h-1v-1zM49,52h1v1h-1v-1zM46,52h2v1h-2v-1zM44,52h1v1h-1v-1zM41,52h1v1h-1v-1zM38,52h1v1h-1v-1zM32,52h4v1h-4v-1zM30,52h1v1h-1v-1zM24,52h2v1h-2v-1zM20,52h2v1h-2v-1zM9,52h2v1h-2v-1zM0,52h7v1h-7v-1zM51,51h1v1h-1v-1zM47,51h1v1h-1v-1zM42,51h2v1h-2v-1zM40,51h1v1h-1v-1zM38,51h1v1h-1v-1zM36,51h1v1h-1v-1zM32,51h3v1h-3v-1zM27,51h2v1h-2v-1zM25,51h1v1h-1v-1zM23,51h1v1h-1v-1zM20,51h2v1h-2v-1zM17,51h2v1h-2v-1zM13,51h1v1h-1v-1zM9,51h1v1h-1v-1zM6,51h1v1h-1v-1zM0,51h1v1h-1v-1zM49,50h4v1h-4v-1zM46,50h2v1h-2v-1zM40,50h4v1h-4v-1zM38,50h1v1h-1v-1zM35,50h1v1h-1v-1zM33,50h1v1h-1v-1zM30,50h2v1h-2v-1zM27,50h1v1h-1v-1zM25,50h1v1h-1v-1zM22,50h1v1h-1v-1zM19,50h2v1h-2v-1zM16,50h1v1h-1v-1zM10,50h5v1h-5v-1zM8,50h1v1h-1v-1zM6,50h1v1h-1v-1zM2,50h3v1h-3v-1zM0,50h1v1h-1v-1zM52,49h1v1h-1v-1zM50,49h1v1h-1v-1zM47,49h2v1h-2v-1zM45,49h1v1h-1v-1zM43,49h1v1h-1v-1zM40,49h2v1h-2v-1zM38,49h1v1h-1v-1zM36,49h1v1h-1v-1zM28,49h4v1h-4v-1zM23,49h1v1h-1v-1zM20,49h2v1h-2v-1zM16,49h2v1h-2v-1zM12,49h1v1h-1v-1zM8,49h3v1h-3v-1zM6,49h1v1h-1v-1zM2,49h3v1h-3v-1zM0,49h1v1h-1v-1zM44,48h5v1h-5v-1zM38,48h2v1h-2v-1zM24,48h13v1h-13v-1zM22,48h1v1h-1v-1zM19,48h2v1h-2v-1zM16,48h1v1h-1v-1zM13,48h2v1h-2v-1zM9,48h2v1h-2v-1zM6,48h1v1h-1v-1zM2,48h3v1h-3v-1zM0,48h1v1h-1v-1zM51,47h1v1h-1v-1zM48,47h1v1h-1v-1zM43,47h2v1h-2v-1zM39,47h1v1h-1v-1zM35,47h3v1h-3v-1zM32,47h1v1h-1v-1zM30,47h1v1h-1v-1zM28,47h1v1h-1v-1zM20,47h5v1h-5v-1zM13,47h2v1h-2v-1zM9,47h2v1h-2v-1zM6,47h1v1h-1v-1zM0,47h1v1h-1v-1zM48,46h3v1h-3v-1zM46,46h1v1h-1v-1zM44,46h1v1h-1v-1zM41,46h2v1h-2v-1zM36,46h1v1h-1v-1zM33,46h1v1h-1v-1zM28,46h2v1h-2v-1zM26,46h1v1h-1v-1zM24,46h1v1h-1v-1zM21,46h2v1h-2v-1zM17,46h1v1h-1v-1zM14,46h2v1h-2v-1zM12,46h1v1h-1v-1zM8,46h1v1h-1v-1zM0,46h7v1h-7v-1zM50,45h3v1h-3v-1zM48,45h1v1h-1v-1zM44,45h1v1h-1v-1zM40,45h3v1h-3v-1zM36,45h2v1h-2v-1zM34,45h1v1h-1v-1zM28,45h4v1h-4v-1zM21,45h4v1h-4v-1zM18,45h1v1h-1v-1zM10,45h6v1h-6v-1zM8,45h1v1h-1v-1zM50,44h2v1h-2v-1zM42,44h7v1h-7v-1zM40,44h1v1h-1v-1zM30,44h2v1h-2v-1zM23,44h6v1h-6v-1zM20,44h1v1h-1v-1zM17,44h2v1h-2v-1zM15,44h1v1h-1v-1zM12,44h1v1h-1v-1zM9,44h2v1h-2v-1zM6,44h1v1h-1v-1zM3,44h1v1h-1v-1zM52,43h1v1h-1v-1zM49,43h2v1h-2v-1zM45,43h3v1h-3v-1zM43,43h1v1h-1v-1zM38,43h3v1h-3v-1zM35,43h2v1h-2v-1zM31,43h3v1h-3v-1zM29,43h1v1h-1v-1zM26,43h1v1h-1v-1zM23,43h2v1h-2v-1zM16,43h1v1h-1v-1zM13,43h2v1h-2v-1zM10,43h1v1h-1v-1zM7,43h2v1h-2v-1zM1,43h2v1h-2v-1zM50,42h1v1h-1v-1zM48,42h1v1h-1v-1zM44,42h2v1h-2v-1zM42,42h1v1h-1v-1zM40,42h1v1h-1v-1zM36,42h3v1h-3v-1zM33,42h2v1h-2v-1zM28,42h2v1h-2v-1zM23,42h1v1h-1v-1zM21,42h1v1h-1v-1zM14,42h6v1h-6v-1zM12,42h1v1h-1v-1zM3,42h7v1h-7v-1zM0,42h2v1h-2v-1zM50,41h1v1h-1v-1zM46,41h1v1h-1v-1zM41,41h1v1h-1v-1zM39,41h1v1h-1v-1zM37,41h1v1h-1v-1zM31,41h1v1h-1v-1zM28,41h2v1h-2v-1zM26,41h1v1h-1v-1zM22,41h3v1h-3v-1zM15,41h5v1h-5v-1zM10,41h4v1h-4v-1zM7,41h1v1h-1v-1zM5,41h1v1h-1v-1zM51,40h2v1h-2v-1zM48,40h2v1h-2v-1zM45,40h1v1h-1v-1zM42,40h1v1h-1v-1zM35,40h1v1h-1v-1zM32,40h1v1h-1v-1zM29,40h1v1h-1v-1zM24,40h2v1h-2v-1zM14,40h5v1h-5v-1zM9,40h4v1h-4v-1zM5,40h2v1h-2v-1zM3,40h1v1h-1v-1zM0,40h1v1h-1v-1zM52,39h1v1h-1v-1zM46,39h4v1h-4v-1zM43,39h2v1h-2v-1zM39,39h3v1h-3v-1zM37,39h1v1h-1v-1zM32,39h3v1h-3v-1zM29,39h2v1h-2v-1zM27,39h1v1h-1v-1zM24,39h1v1h-1v-1zM22,39h1v1h-1v-1zM17,39h3v1h-3v-1zM11,39h3v1h-3v-1zM7,39h3v1h-3v-1zM3,39h2v1h-2v-1zM52,38h1v1h-1v-1zM46,38h1v1h-1v-1zM42,38h1v1h-1v-1zM39,38h1v1h-1v-1zM31,38h3v1h-3v-1zM28,38h1v1h-1v-1zM25,38h2v1h-2v-1zM20,38h2v1h-2v-1zM17,38h2v1h-2v-1zM15,38h1v1h-1v-1zM12,38h2v1h-2v-1zM9,38h1v1h-1v-1zM6,38h2v1h-2v-1zM3,38h1v1h-1v-1zM52,37h1v1h-1v-1zM49,37h2v1h-2v-1zM45,37h1v1h-1v-1zM43,37h1v1h-1v-1zM40,37h1v1h-1v-1zM37,37h2v1h-2v-1zM34,37h2v1h-2v-1zM32,37h1v1h-1v-1zM28,37h3v1h-3v-1zM23,37h3v1h-3v-1zM16,37h1v1h-1v-1zM12,37h3v1h-3v-1zM9,37h2v1h-2v-1zM5,37h1v1h-1v-1zM2,37h1v1h-1v-1zM52,36h1v1h-1v-1zM49,36h2v1h-2v-1zM46,36h2v1h-2v-1zM41,36h2v1h-2v-1zM38,36h1v1h-1v-1zM33,36h4v1h-4v-1zM30,36h1v1h-1v-1zM27,36h1v1h-1v-1zM25,36h1v1h-1v-1zM21,36h2v1h-2v-1zM18,36h1v1h-1v-1zM15,36h1v1h-1v-1zM11,36h3v1h-3v-1zM8,36h1v1h-1v-1zM3,36h4v1h-4v-1zM51,35h1v1h-1v-1zM46,35h1v1h-1v-1zM44,35h1v1h-1v-1zM38,35h1v1h-1v-1zM34,35h1v1h-1v-1zM30,35h2v1h-2v-1zM25,35h2v1h-2v-1zM17,35h4v1h-4v-1zM10,35h3v1h-3v-1zM5,35h1v1h-1v-1zM2,35h1v1h-1v-1zM51,34h1v1h-1v-1zM47,34h1v1h-1v-1zM45,34h1v1h-1v-1zM41,34h3v1h-3v-1zM37,34h1v1h-1v-1zM35,34h1v1h-1v-1zM29,34h2v1h-2v-1zM27,34h1v1h-1v-1zM22,34h4v1h-4v-1zM20,34h1v1h-1v-1zM16,34h1v1h-1v-1zM14,34h1v1h-1v-1zM8,34h1v1h-1v-1zM6,34h1v1h-1v-1zM3,34h2v1h-2v-1zM1,34h1v1h-1v-1zM46,33h5v1h-5v-1zM42,33h1v1h-1v-1zM40,33h1v1h-1v-1zM37,33h1v1h-1v-1zM30,33h2v1h-2v-1zM27,33h2v1h-2v-1zM20,33h2v1h-2v-1zM15,33h4v1h-4v-1zM13,33h1v1h-1v-1zM11,33h1v1h-1v-1zM7,33h3v1h-3v-1zM2,33h4v1h-4v-1zM52,32h1v1h-1v-1zM50,32h1v1h-1v-1zM48,32h1v1h-1v-1zM42,32h4v1h-4v-1zM39,32h2v1h-2v-1zM29,32h1v1h-1v-1zM21,32h4v1h-4v-1zM14,32h5v1h-5v-1zM9,32h3v1h-3v-1zM4,32h3v1h-3v-1zM2,32h1v1h-1v-1zM0,32h1v1h-1v-1zM49,31h2v1h-2v-1zM40,31h4v1h-4v-1zM36,31h2v1h-2v-1zM31,31h1v1h-1v-1zM25,31h2v1h-2v-1zM21,31h3v1h-3v-1zM19,31h1v1h-1v-1zM9,31h5v1h-5v-1zM5,31h1v1h-1v-1zM2,31h1v1h-1v-1zM51,30h1v1h-1v-1zM48,30h1v1h-1v-1zM40,30h2v1h-2v-1zM38,30h1v1h-1v-1zM34,30h3v1h-3v-1zM30,30h2v1h-2v-1zM28,30h1v1h-1v-1zM26,30h1v1h-1v-1zM14,30h6v1h-6v-1zM9,30h3v1h-3v-1zM5,30h2v1h-2v-1zM3,30h1v1h-1v-1zM1,30h1v1h-1v-1zM49,29h3v1h-3v-1zM45,29h1v1h-1v-1zM39,29h1v1h-1v-1zM35,29h2v1h-2v-1zM31,29h1v1h-1v-1zM29,29h1v1h-1v-1zM26,29h2v1h-2v-1zM21,29h3v1h-3v-1zM16,29h2v1h-2v-1zM14,29h1v1h-1v-1zM10,29h3v1h-3v-1zM7,29h2v1h-2v-1zM4,29h2v1h-2v-1zM51,28h2v1h-2v-1zM44,28h6v1h-6v-1zM37,28h2v1h-2v-1zM34,28h1v1h-1v-1zM24,28h9v1h-9v-1zM17,28h4v1h-4v-1zM13,28h1v1h-1v-1zM11,28h1v1h-1v-1zM4,28h6v1h-6v-1zM2,28h1v1h-1v-1zM0,28h1v1h-1v-1zM51,27h2v1h-2v-1zM48,27h1v1h-1v-1zM44,27h1v1h-1v-1zM40,27h3v1h-3v-1zM37,27h1v1h-1v-1zM30,27h3v1h-3v-1zM28,27h1v1h-1v-1zM24,27h1v1h-1v-1zM22,27h1v1h-1v-1zM19,27h2v1h-2v-1zM16,27h2v1h-2v-1zM14,27h1v1h-1v-1zM11,27h1v1h-1v-1zM8,27h1v1h-1v-1zM0,27h5v1h-5v-1zM51,26h2v1h-2v-1zM48,26h1v1h-1v-1zM46,26h1v1h-1v-1zM40,26h5v1h-5v-1zM38,26h1v1h-1v-1zM34,26h1v1h-1v-1zM28,26h3v1h-3v-1zM26,26h1v1h-1v-1zM24,26h1v1h-1v-1zM18,26h4v1h-4v-1zM10,26h3v1h-3v-1zM8,26h1v1h-1v-1zM6,26h1v1h-1v-1zM4,26h1v1h-1v-1zM50,25h3v1h-3v-1zM48,25h1v1h-1v-1zM43,25h2v1h-2v-1zM41,25h1v1h-1v-1zM37,25h2v1h-2v-1zM32,25h4v1h-4v-1zM30,25h1v1h-1v-1zM28,25h1v1h-1v-1zM24,25h1v1h-1v-1zM21,25h2v1h-2v-1zM16,25h3v1h-3v-1zM11,25h2v1h-2v-1zM8,25h2v1h-2v-1zM0,25h5v1h-5v-1zM51,24h1v1h-1v-1zM41,24h8v1h-8v-1zM36,24h4v1h-4v-1zM30,24h5v1h-5v-1zM24,24h5v1h-5v-1zM22,24h1v1h-1v-1zM16,24h3v1h-3v-1zM14,24h1v1h-1v-1zM12,24h1v1h-1v-1zM4,24h7v1h-7v-1zM1,24h1v1h-1v-1zM51,23h2v1h-2v-1zM48,23h1v1h-1v-1zM45,23h1v1h-1v-1zM41,23h3v1h-3v-1zM39,23h1v1h-1v-1zM35,23h2v1h-2v-1zM32,23h1v1h-1v-1zM28,23h1v1h-1v-1zM26,23h1v1h-1v-1zM22,23h3v1h-3v-1zM15,23h4v1h-4v-1zM12,23h2v1h-2v-1zM7,23h3v1h-3v-1zM4,23h2v1h-2v-1zM2,23h1v1h-1v-1zM50,22h1v1h-1v-1zM46,22h2v1h-2v-1zM44,22h1v1h-1v-1zM42,22h1v1h-1v-1zM36,22h2v1h-2v-1zM29,22h5v1h-5v-1zM25,22h1v1h-1v-1zM20,22h4v1h-4v-1zM17,22h1v1h-1v-1zM15,22h1v1h-1v-1zM12,22h1v1h-1v-1zM6,22h2v1h-2v-1zM4,22h1v1h-1v-1zM1,22h1v1h-1v-1zM52,21h1v1h-1v-1zM48,21h2v1h-2v-1zM42,21h1v1h-1v-1zM40,21h1v1h-1v-1zM34,21h1v1h-1v-1zM32,21h1v1h-1v-1zM30,21h1v1h-1v-1zM25,21h2v1h-2v-1zM23,21h1v1h-1v-1zM17,21h3v1h-3v-1zM15,21h1v1h-1v-1zM12,21h2v1h-2v-1zM8,21h3v1h-3v-1zM0,21h1v1h-1v-1zM52,20h1v1h-1v-1zM50,20h1v1h-1v-1zM47,20h1v1h-1v-1zM44,20h2v1h-2v-1zM40,20h2v1h-2v-1zM34,20h3v1h-3v-1zM31,20h1v1h-1v-1zM29,20h1v1h-1v-1zM25,20h1v1h-1v-1zM23,20h1v1h-1v-1zM15,20h3v1h-3v-1zM13,20h1v1h-1v-1zM10,20h2v1h-2v-1zM6,20h3v1h-3v-1zM2,20h1v1h-1v-1zM50,19h1v1h-1v-1zM40,19h9v1h-9v-1zM38,19h1v1h-1v-1zM34,19h2v1h-2v-1zM32,19h1v1h-1v-1zM29,19h1v1h-1v-1zM27,19h1v1h-1v-1zM14,19h5v1h-5v-1zM12,19h1v1h-1v-1zM9,19h2v1h-2v-1zM7,19h1v1h-1v-1zM3,19h1v1h-1v-1zM0,19h2v1h-2v-1zM46,18h3v1h-3v-1zM43,18h1v1h-1v-1zM41,18h1v1h-1v-1zM30,18h10v1h-10v-1zM27,18h1v1h-1v-1zM25,18h1v1h-1v-1zM23,18h1v1h-1v-1zM19,18h3v1h-3v-1zM12,18h2v1h-2v-1zM8,18h1v1h-1v-1zM5,18h2v1h-2v-1zM3,18h1v1h-1v-1zM49,17h1v1h-1v-1zM45,17h2v1h-2v-1zM43,17h1v1h-1v-1zM40,17h1v1h-1v-1zM37,17h1v1h-1v-1zM29,17h7v1h-7v-1zM22,17h1v1h-1v-1zM20,17h1v1h-1v-1zM18,17h1v1h-1v-1zM16,17h1v1h-1v-1zM12,17h1v1h-1v-1zM8,17h2v1h-2v-1zM4,17h2v1h-2v-1zM2,17h1v1h-1v-1zM0,17h1v1h-1v-1zM50,16h3v1h-3v-1zM47,16h1v1h-1v-1zM43,16h1v1h-1v-1zM41,16h1v1h-1v-1zM33,16h3v1h-3v-1zM29,16h3v1h-3v-1zM26,16h1v1h-1v-1zM23,16h2v1h-2v-1zM16,16h4v1h-4v-1zM12,16h3v1h-3v-1zM8,16h2v1h-2v-1zM5,16h2v1h-2v-1zM3,16h1v1h-1v-1zM0,16h1v1h-1v-1zM51,15h2v1h-2v-1zM49,15h1v1h-1v-1zM47,15h1v1h-1v-1zM44,15h1v1h-1v-1zM42,15h1v1h-1v-1zM40,15h1v1h-1v-1zM35,15h1v1h-1v-1zM31,15h3v1h-3v-1zM28,15h2v1h-2v-1zM26,15h1v1h-1v-1zM20,15h4v1h-4v-1zM16,15h2v1h-2v-1zM12,15h3v1h-3v-1zM10,15h1v1h-1v-1zM7,15h2v1h-2v-1zM5,15h1v1h-1v-1zM0,15h4v1h-4v-1zM50,14h3v1h-3v-1zM48,14h1v1h-1v-1zM45,14h1v1h-1v-1zM42,14h2v1h-2v-1zM39,14h2v1h-2v-1zM37,14h1v1h-1v-1zM35,14h1v1h-1v-1zM29,14h2v1h-2v-1zM23,14h4v1h-4v-1zM20,14h1v1h-1v-1zM15,14h3v1h-3v-1zM11,14h3v1h-3v-1zM6,14h3v1h-3v-1zM2,14h3v1h-3v-1zM0,14h1v1h-1v-1zM52,13h1v1h-1v-1zM49,13h1v1h-1v-1zM44,13h1v1h-1v-1zM37,13h4v1h-4v-1zM30,13h4v1h-4v-1zM28,13h1v1h-1v-1zM25,13h2v1h-2v-1zM22,13h2v1h-2v-1zM18,13h3v1h-3v-1zM14,13h1v1h-1v-1zM8,13h5v1h-5v-1zM5,13h1v1h-1v-1zM52,12h1v1h-1v-1zM48,12h1v1h-1v-1zM43,12h4v1h-4v-1zM38,12h2v1h-2v-1zM35,12h2v1h-2v-1zM32,12h2v1h-2v-1zM27,12h4v1h-4v-1zM25,12h1v1h-1v-1zM20,12h2v1h-2v-1zM15,12h4v1h-4v-1zM10,12h3v1h-3v-1zM6,12h1v1h-1v-1zM2,12h1v1h-1v-1zM45,11h4v1h-4v-1zM41,11h3v1h-3v-1zM39,11h1v1h-1v-1zM36,11h1v1h-1v-1zM33,11h1v1h-1v-1zM29,11h3v1h-3v-1zM25,11h3v1h-3v-1zM19,11h3v1h-3v-1zM15,11h2v1h-2v-1zM13,11h1v1h-1v-1zM10,11h1v1h-1v-1zM7,11h1v1h-1v-1zM5,11h1v1h-1v-1zM3,11h1v1h-1v-1zM51,10h1v1h-1v-1zM48,10h2v1h-2v-1zM46,10h1v1h-1v-1zM39,10h5v1h-5v-1zM37,10h1v1h-1v-1zM34,10h2v1h-2v-1zM31,10h2v1h-2v-1zM29,10h1v1h-1v-1zM27,10h1v1h-1v-1zM24,10h2v1h-2v-1zM20,10h3v1h-3v-1zM17,10h2v1h-2v-1zM14,10h1v1h-1v-1zM11,10h1v1h-1v-1zM5,10h5v1h-5v-1zM3,10h1v1h-1v-1zM49,9h4v1h-4v-1zM47,9h1v1h-1v-1zM40,9h3v1h-3v-1zM34,9h2v1h-2v-1zM30,9h2v1h-2v-1zM24,9h3v1h-3v-1zM22,9h1v1h-1v-1zM16,9h3v1h-3v-1zM11,9h3v1h-3v-1zM9,9h1v1h-1v-1zM4,9h2v1h-2v-1zM1,9h1v1h-1v-1zM48,8h1v1h-1v-1zM44,8h3v1h-3v-1zM39,8h2v1h-2v-1zM37,8h1v1h-1v-1zM30,8h4v1h-4v-1zM23,8h6v1h-6v-1zM19,8h3v1h-3v-1zM16,8h1v1h-1v-1zM6,8h5v1h-5v-1zM2,8h2v1h-2v-1zM38,7h4v1h-4v-1zM36,7h1v1h-1v-1zM33,7h1v1h-1v-1zM28,7h1v1h-1v-1zM24,7h1v1h-1v-1zM21,7h2v1h-2v-1zM14,7h5v1h-5v-1zM11,7h2v1h-2v-1zM8,7h1v1h-1v-1zM46,6h7v1h-7v-1zM44,6h1v1h-1v-1zM42,6h1v1h-1v-1zM40,6h1v1h-1v-1zM38,6h1v1h-1v-1zM36,6h1v1h-1v-1zM34,6h1v1h-1v-1zM32,6h1v1h-1v-1zM30,6h1v1h-1v-1zM28,6h1v1h-1v-1zM26,6h1v1h-1v-1zM24,6h1v1h-1v-1zM22,6h1v1h-1v-1zM20,6h1v1h-1v-1zM18,6h1v1h-1v-1zM16,6h1v1h-1v-1zM14,6h1v1h-1v-1zM12,6h1v1h-1v-1zM10,6h1v1h-1v-1zM8,6h1v1h-1v-1zM0,6h7v1h-7v-1zM52,5h1v1h-1v-1zM46,5h1v1h-1v-1zM42,5h1v1h-1v-1zM39,5h1v1h-1v-1zM37,5h1v1h-1v-1zM34,5h1v1h-1v-1zM28,5h1v1h-1v-1zM22,5h3v1h-3v-1zM18,5h1v1h-1v-1zM15,5h1v1h-1v-1zM12,5h1v1h-1v-1zM9,5h2v1h-2v-1zM6,5h1v1h-1v-1zM0,5h1v1h-1v-1zM52,4h1v1h-1v-1zM48,4h3v1h-3v-1zM46,4h1v1h-1v-1zM42,4h1v1h-1v-1zM40,4h1v1h-1v-1zM37,4h2v1h-2v-1zM34,4h1v1h-1v-1zM31,4h1v1h-1v-1zM24,4h6v1h-6v-1zM20,4h1v1h-1v-1zM17,4h2v1h-2v-1zM12,4h3v1h-3v-1zM10,4h1v1h-1v-1zM8,4h1v1h-1v-1zM6,4h1v1h-1v-1zM2,4h3v1h-3v-1zM0,4h1v1h-1v-1zM52,3h1v1h-1v-1zM48,3h3v1h-3v-1zM46,3h1v1h-1v-1zM44,3h1v1h-1v-1zM41,3h2v1h-2v-1zM36,3h3v1h-3v-1zM33,3h1v1h-1v-1zM30,3h2v1h-2v-1zM27,3h2v1h-2v-1zM21,3h4v1h-4v-1zM18,3h1v1h-1v-1zM15,3h2v1h-2v-1zM13,3h1v1h-1v-1zM6,3h1v1h-1v-1zM2,3h3v1h-3v-1zM0,3h1v1h-1v-1zM52,2h1v1h-1v-1zM48,2h3v1h-3v-1zM46,2h1v1h-1v-1zM43,2h1v1h-1v-1zM38,2h1v1h-1v-1zM35,2h1v1h-1v-1zM31,2h2v1h-2v-1zM27,2h1v1h-1v-1zM24,2h2v1h-2v-1zM21,2h2v1h-2v-1zM18,2h1v1h-1v-1zM13,2h1v1h-1v-1zM6,2h1v1h-1v-1zM2,2h3v1h-3v-1zM0,2h1v1h-1v-1zM52,1h1v1h-1v-1zM46,1h1v1h-1v-1zM39,1h5v1h-5v-1zM31,1h5v1h-5v-1zM29,1h1v1h-1v-1zM24,1h1v1h-1v-1zM19,1h1v1h-1v-1zM15,1h1v1h-1v-1zM11,1h3v1h-3v-1zM6,1h1v1h-1v-1zM0,1h1v1h-1v-1zM46,0h7v1h-7v-1zM42,0h1v1h-1v-1zM40,0h1v1h-1v-1zM37,0h1v1h-1v-1zM35,0h1v1h-1v-1zM31,0h2v1h-2v-1zM28,0h2v1h-2v-1zM24,0h1v1h-1v-1zM21,0h2v1h-2v-1zM17,0h1v1h-1v-1zM11,0h4v1h-4v-1zM0,0h7v1h-7v-1z"></path></svg>